<svg id="Capa_1" enable-background="new 0 0 511.988 511.988" height="512" viewBox="0 0 511.988 511.988" width="512" xmlns="http://www.w3.org/2000/svg"><g><g><path d="m256.245 7.488h-.501c-67.517 0-122.25 54.733-122.25 122.25v33.263l13.239 13.239 42.261 83.76 67 12 70-11 52.5-111v-20.263c0-67.516-54.733-122.249-122.249-122.249z" fill="#528fd8"/><path d="m256.245 7.488h-.501c-5.686 0-11.278.397-16.758 1.148 59.587 8.169 105.492 59.271 105.492 121.101v252.501c0 61.831-45.906 112.932-105.492 121.101 74.327 10.193 139.508-47.134 139.508-121.101v-252.5c0-67.517-54.733-122.25-122.249-122.25z" fill="#0473ce"/><path d="m256.245 7.488h-.501c-5.686 0-11.278.397-16.758 1.148 59.587 8.169 105.492 59.271 105.492 121.101v252.501c0 61.831-45.906 112.932-105.492 121.101 74.327 10.193 139.508-47.134 139.508-121.101v-252.5c0-67.517-54.733-122.25-122.249-122.25z" fill="#0473ce"/><path d="m338.494 408.325h-165v-115.161c0-45.563 36.936-82.5 82.5-82.5 45.563 0 82.5 36.936 82.5 82.5z" fill="#ffa78f"/><path d="m378.494 382.239v-219.239l-242.735 242.735c10.808 55.507 59.549 98.753 120.485 98.753 67.517 0 122.25-54.733 122.25-122.249z" fill="#b2caec"/><g><path d="m344.478 197.016v176.969l31.751 31.75c-.169.867-.347 1.73-.534 2.59 1.828-8.407 2.799-17.132 2.799-26.086v-219.239z" fill="#82aee3"/></g><path d="m376.229 405.735-242.735-242.735v219.238c0 66.709 53.727 122.25 122.75 122.25 59.479 0 109.028-42.479 119.985-98.753z" fill="#c0d6f2"/><path d="m376.229 405.735-31.751-31.75v8.254c0 61.831-45.906 112.932-105.492 121.101 65.33 8.968 124.949-34.492 137.243-97.605z" fill="#b2caec"/><g><path d="m303.106 117.759h44.448c17.088 0 30.941 13.853 30.941 30.941v.19c0 17.088-13.853 30.941-30.941 30.941h-44.448z" fill="#ffa78f"/><path d="m208.883 179.832h-44.448c-17.088 0-30.941-13.853-30.941-30.941v-.19c0-17.088 13.853-30.941 30.941-30.941h44.448z" fill="#ffb09e"/><path d="m254.864 41.515c-49.942.448-90.291 41.066-90.291 91.114v32.301c0 50.048 40.349 90.666 90.291 91.114 49.942-.448 90.291-41.066 90.291-91.114v-32.301c0-50.049-40.349-90.666-90.291-91.114z" fill="#ffcebf"/><path d="m256.317 41.504h-.62c-3.766 0-7.477.233-11.124.677 45.079 5.487 80.001 43.887 80.001 90.448v32.301c0 46.561-34.922 84.96-80.001 90.448 3.646.444 7.358.677 11.124.677h.62c50.327 0 91.125-40.798 91.125-91.125v-32.301c0-50.327-40.798-91.125-91.125-91.125z" fill="#ffb09e"/></g><g><path d="m322.753 185.008h-16c-4.143 0-7.5-3.357-7.5-7.5s3.357-7.5 7.5-7.5h16c4.143 0 7.5 3.357 7.5 7.5s-3.358 7.5-7.5 7.5z" fill="#fe8f83"/></g><g><path d="m205.235 185.008h-16c-4.142 0-7.5-3.357-7.5-7.5s3.358-7.5 7.5-7.5h16c4.142 0 7.5 3.357 7.5 7.5s-3.358 7.5-7.5 7.5z" fill="#fe8f83"/></g></g><g><path d="m282.915 183.33c0-4.143-3.357-7.5-7.5-7.5s-7.5 3.357-7.5 7.5c0 6.574-5.348 11.922-11.921 11.922s-11.921-5.348-11.921-11.922c0-4.143-3.357-7.5-7.5-7.5s-7.5 3.357-7.5 7.5c0 14.845 12.077 26.922 26.921 26.922s26.921-12.077 26.921-26.922z"/><path d="m214.361 127.264c-4.143 0-7.5 3.357-7.5 7.5v18.667c0 4.143 3.357 7.5 7.5 7.5s7.5-3.357 7.5-7.5v-18.667c0-4.143-3.357-7.5-7.5-7.5z"/><path d="m295.361 160.931c4.143 0 7.5-3.357 7.5-7.5v-18.667c0-4.143-3.357-7.5-7.5-7.5s-7.5 3.357-7.5 7.5v18.667c0 4.142 3.358 7.5 7.5 7.5z"/><path d="m349.169 39.196c-2.89-2.966-7.639-3.027-10.605-.137-2.967 2.892-3.027 7.64-.137 10.605 18.195 18.669 29.301 42.513 31.946 68.123-5.737-4.247-12.693-6.93-20.237-7.433-4.105-17.852-13.095-34.076-26.067-47.159-18.426-18.583-42.979-28.946-69.139-29.182-.045 0-.09 0-.135 0-26.161.235-50.716 10.6-69.142 29.185-12.536 12.646-21.889 28.796-26.116 47.382-6.651.85-12.777 3.398-17.922 7.206 6.002-57.671 54.895-102.786 114.129-102.786h.5c19.719 0 39.163 5.082 56.232 14.697 3.607 2.036 8.184.757 10.215-2.854 2.033-3.608.756-8.183-2.854-10.215-19.31-10.878-41.301-16.628-63.593-16.628h-.5c-71.544 0-129.75 58.206-129.75 129.75v163.23c0 4.143 3.357 7.5 7.5 7.5s7.5-3.357 7.5-7.5v-111.861l25.132 25.132c4.671 10.111 10.974 19.245 18.569 27.122.032.033.064.067.096.101 8.3 8.583 18.328 15.821 29.588 21.02l36.311 36.311 117.344 117.344c-11.93 51.695-58.282 88.841-111.79 88.841h-.5c-1.735 0-3.46-.046-5.177-.122-.135-.006-.271-.009-.406-.016 0 0 0 0-.001 0-60.69-2.923-109.166-53.211-109.166-114.612v-54.26c0-4.143-3.357-7.5-7.5-7.5s-7.5 3.357-7.5 7.5v54.258c0 70.47 56.872 129.75 129.75 129.75h.5c8.885 0 17.951-.969 26.023-2.613 1.66-.356.657-.146 1.168-.275 1.712-.367 1.79-.366 1.79-.366.361-.082.824-.194 1.19-.282 21.718-5.147 43.326-16.613 60.608-33.521.068-.066.126-.138.19-.206.085-.077.174-.148.256-.23.507-.502 1.006-1.008 1.505-1.516.086-.087.16-.181.241-.271.084-.079.171-.151.252-.234.002-.002.004-.004.006-.006s.004-.004.005-.006c23.222-23.906 36.515-56.255 36.515-90.224 0-8.598 0-243.628 0-252.488.001-34.029-13.077-66.189-36.824-90.554zm-208.175 109.695v-.19c0-10.428 6.845-19.287 16.276-22.322-.261 4.12-.354 39.266.002 44.835-9.432-3.034-16.278-11.895-16.278-22.323zm32.842 33.08c-.547-2.675-.975-5.392-1.271-8.114-.014-.133-.027-.266-.041-.399-.474-4.575-1.148-42.017.429-52.849.041-.285.079-.57.122-.854 6.196-39.641 40.504-70.338 81.788-70.741 45.9.449 82.792 38.203 82.792 83.614 0 35.015.273 36.926-1.005 45.183-6.2 39.637-40.506 70.328-81.787 70.732-9.238-.091-18.3-1.677-26.933-4.714-26.762-9.414-47.945-32.361-54.094-61.858zm70.1 80.864c3.591.427 7.213.676 10.86.709h.067s.045 0 .067 0c4.539-.041 9.028-.394 13.447-1.034l-12.384 12.384zm127.058 119.403c0 2.47-.089 4.941-.248 7.407-4.656-4.656-100.777-100.777-104.146-104.146l33.143-33.142c17.77-9.315 32.43-24.001 41.715-41.703l29.536-29.536zm0-233.347c0 11.255-7.973 20.683-18.568 22.931 1.013-12.688.068-44.925-.009-46.055 10.599 2.246 18.577 11.675 18.577 22.933z"/></g></g></svg>