<svg height="512" viewBox="0 0 512 512" width="512" xmlns="http://www.w3.org/2000/svg"><g id="Filled_outline" data-name="Filled outline"><path d="m256 214.863v-134.863h48v158.863l80 48v40l-80-48v209.137h-48v-233.137l-144 96v-40z" fill="#d65246"/><circle cx="280" cy="80" fill="#c7483c" r="24"/><path d="m256 134.863v-86.863h-48v118.863l-80 56v40l80-56v281.137h48v-313.137l144 80v-40z" fill="#348ed8"/><circle cx="232" cy="48" fill="#2d7dbe" r="24"/><path d="m153.71 302.29a56.569 56.569 0 1 1 -80 80 169.7 169.7 0 0 1 0-240 56.569 56.569 0 1 1 80 80 56.484 56.484 0 0 0 -16.1 32.71 56.7 56.7 0 0 0 .21 16.04 56.326 56.326 0 0 0 15.89 31.25z" fill="#91563a"/><path d="m358.29 302.29a56.569 56.569 0 1 0 80 80 169.7 169.7 0 0 0 0-240 56.569 56.569 0 1 0 -80 80 56.484 56.484 0 0 1 16.1 32.71 56.7 56.7 0 0 1 -.21 16.04 56.326 56.326 0 0 1 -15.89 31.25z" fill="#91563a"/><path d="m470.864 354.624a178.636 178.636 0 0 0 23.925-111.965 175.875 175.875 0 0 0 -50.838-104.885 64.517 64.517 0 0 0 -108.717 31.955l-23.234-12.908v-76.821a31.976 31.976 0 0 0 -48-27.695v-4.305a32 32 0 0 0 -64 0v48h16v-20.305a31.885 31.885 0 0 0 32 0v59.165a8 8 0 0 0 4.114 6.993l81.77 45.43a64.56 64.56 0 0 0 6.93 25.543l-80.929-44.959a8 8 0 0 0 -11.885 6.993v305.14h-32v-273.14a8 8 0 0 0 -12.588-6.554l-50.165 35.115a48.6 48.6 0 0 1 6.115-7.47 64.138 64.138 0 0 0 16.682-28.951l36.544-25.581a8 8 0 0 0 3.412-6.559v-56.86h-16v52.7l-21.913 15.339a64.518 64.518 0 0 0 -110.038-41.4l11.313 11.313a48.569 48.569 0 0 1 68.687 68.687 64.176 64.176 0 0 0 -14.471 22.17c-38.336-1.548-45.4-39.633-45.691-41.287l-15.778 2.657a76.648 76.648 0 0 0 11.235 27.121c7.733 11.6 21.906 25.244 46.3 27.291a65.108 65.108 0 0 0 .135 16.532c-24.476 2.008-38.687 15.681-46.434 27.3a76.642 76.642 0 0 0 -11.235 27.123l15.782 2.63a61.419 61.419 0 0 1 8.764-20.876c8.687-13.03 21.258-19.869 37.366-20.387a64.2 64.2 0 0 0 14.027 21.038 48.569 48.569 0 1 1 -68.687 68.686 161.72 161.72 0 0 1 -9.254-218.628l-12.216-10.332a177.72 177.72 0 0 0 10.157 240.274 64.555 64.555 0 0 0 105.92-68.783l26.031-17.358v186.19a8 8 0 0 0 8 8h96a8 8 0 0 0 8-8v-195.011l21.77 13.061 8.23-13.72-33.884-20.33a8.055 8.055 0 0 0 -12.116 6.86v201.14h-32v-291.544l32 17.778v32.626a8 8 0 0 0 3.887 6.862l62.7 37.617a48.324 48.324 0 0 1 -9.948 14.436 64.568 64.568 0 1 0 91.313 91.313 179.423 179.423 0 0 0 19.393-22.945l-13.045-9.262a163.412 163.412 0 0 1 -17.659 20.894 48.569 48.569 0 0 1 -68.687-68.687 64.179 64.179 0 0 0 14.471-22.171c38.336 1.548 45.4 39.634 45.691 41.288l15.778-2.657a76.642 76.642 0 0 0 -11.235-27.123c-7.733-11.6-21.906-25.244-46.3-27.29a65.115 65.115 0 0 0 -.135-16.533c24.476-2.007 38.687-15.681 46.434-27.3a76.648 76.648 0 0 0 11.235-27.122l-15.782-2.63a61.41 61.41 0 0 1 -8.765 20.877c-8.687 13.031-21.258 19.87-37.366 20.387a64.22 64.22 0 0 0 -14.027-21.038 48.569 48.569 0 0 1 68.687-68.686 160.021 160.021 0 0 1 46.26 95.43 162.546 162.546 0 0 1 -21.761 101.885zm-270.864-132.399v20.353l-52.4 34.93a48.816 48.816 0 0 1 -2.4-16.924zm-33.608 82.765a64.582 64.582 0 0 0 -7.03-8.352 48.72 48.72 0 0 1 -4.266-4.9l44.904-29.931v20.772zm65.608-240.99a16 16 0 1 1 16-16 16.019 16.019 0 0 1 -16 16zm48 0a16 16 0 1 1 -16 16 16.019 16.019 0 0 1 16-16zm-16 43.7a31.885 31.885 0 0 0 32 0v40.237l-32-17.779zm48 126.633v-19.211l50.415 28.008a48.75 48.75 0 0 1 4.271 24.009z"/></g></svg>