<svg id="Capa_1" enable-background="new 0 0 510.121 510.121" height="512" viewBox="0 0 510.121 510.121" width="512" xmlns="http://www.w3.org/2000/svg"><g><circle cx="251.028" cy="248.061" fill="#ffa78f" r="74.336"/><path d="m251.029 173.725c-5.139 0-10.155.521-15 1.514 33.864 6.939 59.336 36.905 59.336 72.821s-25.472 65.882-59.336 72.821c4.845.993 9.861 1.514 15 1.514 41.054 0 74.336-33.281 74.336-74.335s-33.282-74.335-74.336-74.335z" fill="#f89580"/><path d="m224.041 344.745v148.526c0 5.164 4.186 9.35 9.35 9.35h37.276c5.164 0 9.35-4.186 9.35-9.35v-148.526c20.058-1.805 35.631-19.171 34.535-39.939-1.04-19.7-17.379-35.519-37.101-35.968-9.698-.221-18.589 3.196-25.422 8.971-6.833-5.776-15.724-9.192-25.422-8.971-19.722.449-36.061 16.268-37.101 35.968-1.096 20.769 14.476 38.135 34.535 39.939z" fill="#fef0ae"/><path d="m314.551 304.807c-1.04-19.7-17.379-35.52-37.101-35.968-5.666-.129-11.052.991-15.917 3.09 12.906 5.587 22.24 18.146 23.018 32.878 1.096 20.768-14.477 38.134-34.535 39.938v148.526c0 5.164-4.186 9.35-9.35 9.35h30c5.164 0 9.35-4.186 9.35-9.35v-148.526c20.058-1.805 35.631-19.17 34.535-39.938z" fill="#f9e075"/><path d="m280.016 165.376v-148.526c0-5.164-4.186-9.35-9.35-9.35h-37.276c-5.164 0-9.35 4.186-9.35 9.35v148.526c-20.058 1.805-35.631 19.171-34.535 39.939 1.04 19.7 17.379 35.519 37.101 35.968 9.698.221 18.589-3.196 25.422-8.971 6.833 5.776 15.724 9.192 25.422 8.971 19.722-.449 36.061-16.268 37.101-35.968 1.096-20.769-14.476-38.135-34.535-39.939z" fill="#fef0ae"/><path d="m280.016 165.375v-148.525c0-5.164-4.186-9.35-9.349-9.35h-30c5.164 0 9.349 4.186 9.349 9.35v148.526c20.058 1.805 35.631 19.171 34.535 39.939-.777 14.731-10.112 27.291-23.018 32.878 4.865 2.099 10.251 3.219 15.917 3.09 19.722-.449 36.061-16.269 37.101-35.968 1.096-20.769-14.476-38.134-34.535-39.94z" fill="#f9e075"/><path d="m135.47 167.031c-2.929-2.929-7.678-2.929-10.606 0-2.929 2.929-2.929 7.678 0 10.606l16.782 16.782c1.464 1.464 3.384 2.197 5.303 2.197s3.839-.732 5.303-2.197c2.929-2.929 2.929-7.678 0-10.606z"/><path d="m141.645 307.328-16.782 16.782c-2.929 2.929-2.929 7.678 0 10.606 1.464 1.464 3.384 2.197 5.303 2.197s3.839-.732 5.303-2.197l16.782-16.782c2.929-2.929 2.929-7.678 0-10.606-2.928-2.929-7.677-2.929-10.606 0z"/><path d="m154.448 249.531c0-4.142-3.358-7.5-7.5-7.5h-26.193c-4.142 0-7.5 3.358-7.5 7.5s3.358 7.5 7.5 7.5h26.193c4.143 0 7.5-3.358 7.5-7.5z"/><path d="m363.173 196.616c1.919 0 3.839-.732 5.304-2.197l16.782-16.782c2.929-2.929 2.929-7.677 0-10.606s-7.677-2.929-10.607 0l-16.782 16.782c-2.929 2.929-2.929 7.677 0 10.606 1.464 1.465 3.383 2.197 5.303 2.197z"/><path d="m368.476 307.328c-2.93-2.93-7.678-2.929-10.607 0s-2.929 7.678 0 10.606l16.782 16.782c1.465 1.465 3.385 2.197 5.304 2.197s3.839-.732 5.304-2.197c2.929-2.929 2.929-7.678 0-10.606z"/><path d="m389.366 242.031h-26.193c-4.143 0-7.5 3.358-7.5 7.5s3.357 7.5 7.5 7.5h26.193c4.143 0 7.5-3.358 7.5-7.5s-3.357-7.5-7.5-7.5z"/><path d="m332.864 248.061c0-13.641-3.426-27.148-9.907-39.06-.296-.545-.656-1.031-1.057-1.47.056-.604.108-1.21.141-1.821 1.175-22.253-13.575-41.559-34.524-46.672v-142.188c0-9.291-7.559-16.85-16.85-16.85h-37.277c-9.291 0-16.85 7.559-16.85 16.85v57.484c0 4.142 3.358 7.5 7.5 7.5s7.5-3.358 7.5-7.5v-57.484c0-1.02.83-1.85 1.85-1.85h37.276c1.02 0 1.85.83 1.85 1.85v148.526c0 3.882 2.962 7.122 6.828 7.47 16.413 1.477 28.589 15.566 27.718 32.074-.836 15.825-13.917 28.504-29.782 28.865-7.447.172-14.716-2.387-20.41-7.201-2.797-2.362-6.888-2.361-9.684 0-5.694 4.813-12.934 7.379-20.409 7.201-15.865-.361-28.946-13.04-29.781-28.865-.872-16.508 11.303-30.596 27.717-32.074 3.866-.348 6.828-3.588 6.828-7.47v-61.042c0-4.142-3.358-7.5-7.5-7.5s-7.5 3.358-7.5 7.5v54.703c-20.949 5.114-35.699 24.419-34.524 46.672.02.371.057.737.085 1.106-.344.382-.656.803-.924 1.266-7.187 12.401-10.985 26.571-10.985 40.979 0 16.144 4.695 31.727 13.568 45.125-.956 3.274-1.558 6.696-1.744 10.226-1.174 22.254 13.576 41.559 34.524 46.673v142.188c0 9.291 7.559 16.85 16.85 16.85h37.276c9.291 0 16.85-7.559 16.85-16.85v-87.414c0-4.142-3.357-7.5-7.5-7.5s-7.5 3.358-7.5 7.5v87.414c0 1.02-.83 1.85-1.85 1.85h-37.277c-1.02 0-1.85-.83-1.85-1.85v-148.526c0-3.882-2.962-7.122-6.828-7.47-16.414-1.478-28.589-15.566-27.717-32.074.835-15.825 13.917-28.504 29.782-28.865 7.44-.173 14.714 2.388 20.409 7.201 2.796 2.362 6.889 2.363 9.684 0 5.695-4.814 12.925-7.382 20.41-7.201 15.864.36 28.946 13.04 29.782 28.865.871 16.508-11.305 30.597-27.718 32.074-3.866.348-6.828 3.588-6.828 7.47v31.112c0 4.142 3.357 7.5 7.5 7.5s7.5-3.358 7.5-7.5v-24.774c20.949-5.114 35.699-24.419 34.524-46.673-.219-4.151-1.014-8.153-2.285-11.939.052-.074.111-.14.16-.217 8.471-13.179 12.949-28.462 12.949-44.194zm-55.243 13.28c-9.087-.208-18.005 2.31-25.593 7.169-7.586-4.858-16.476-7.37-25.592-7.169-13.851.315-26.273 6.935-34.448 17.101-4.46-9.093-6.795-19.095-6.795-29.381 0-7.456 1.248-14.829 3.65-21.806 7.904 12.638 21.823 21.167 37.594 21.526 9.112.213 18.005-2.311 25.592-7.169 7.298 4.673 15.805 7.181 24.552 7.181.347 0 .694-.004 1.042-.012 15.477-.353 29.176-8.57 37.152-20.821 2.034 6.474 3.09 13.265 3.09 20.102 0 10.21-2.315 20.181-6.729 29.243-8.174-9.524-20.185-15.661-33.515-15.964z"/></g></svg>