<svg id="Capa_1" enable-background="new 0 0 512 512" height="512" viewBox="0 0 512 512" width="512" xmlns="http://www.w3.org/2000/svg"><g><path d="m350.67 79.67c0 15.41-.58 72.09-.58 72.09h-45c23.74-38.44-3.91-88.03-49.09-88.03l-30-31.865 30-31.865c55.704 0 94.67 35.67 94.67 79.67z" fill="#c9556e"/><path d="m256 0c79.07 0 143.4 64.33 143.4 143.4 0 26.73-7.43 52.84-21.5 75.52l-64.73 104.72h-57.17v-92.47l49.08-79.39c.01-.02 18.62-30.12 18.62-30.12 7.58-12.19 11.97-26.58 11.97-41.99 0-44-35.67-79.67-79.67-79.67z" fill="#ff6e8d"/><path d="m198.83 323.64h57.17v92.47l-59.28 95.89h-114.33z" fill="#ff6e8d"/><path d="m429.61 512h-114.33l-59.28-95.89-45-184.94h45z" fill="#ff8ba4"/><path d="m161.33 79.67c0 15.41.58 72.09.58 72.09h45c-23.74-38.44 3.91-88.03 49.09-88.03v-63.73c-55.704 0-94.67 35.67-94.67 79.67z" fill="#e85f7d"/><path d="m256 231.17v184.94l-121.9-197.19c-14.07-22.68-21.5-48.79-21.5-75.52 0-79.07 64.33-143.4 143.4-143.4-44 0-79.67 35.67-79.67 79.67 0 15.41 4.39 29.8 11.97 41.99l18.61 30.11c.01.01 49.09 79.4 49.09 79.4z" fill="#ffa2b6"/></g></svg>