<svg id="Capa_1" enable-background="new 0 0 512 512" height="512" viewBox="0 0 512 512" width="512" xmlns="http://www.w3.org/2000/svg"><g><g><path d="m245.909 84.218c-40.431 4.485-73.24 37.445-77.566 77.893-2.859 26.737 6.252 51.351 22.631 69.201 25.345 27.62 40.977 62.734 40.977 100.221 0 40.05 48.097.015 48.097.015 0-36.759 14.034-72.21 39.527-98.693 15.233-15.825 24.602-37.322 24.602-61.032 0-52.022-45.052-93.509-98.268-87.605z" fill="#ff97a2"/><path d="m208.688 215.048c-12.602-13.737-18.438-31.629-16.432-50.38 1.072-10.029 4.686-19.87 10.451-28.458l2.999-4.467h-28.092c-4.844 9.329-8.114 19.556-9.271 30.368-2.859 26.737 6.252 51.351 22.631 69.202 21.833 23.793 36.392 53.161 40.026 84.801h24.23c-3.586-36.504-19.789-71.906-46.542-101.066z" fill="#ff7e8e"/><path d="m280.048 331.548c0-7.912.777-15.737 2.052-23.451h-52.344c1.349 7.685 2.195 15.493 2.195 23.44l24.049 96.802h24.048z" fill="#fb5f7a"/><ellipse cx="79.645" cy="163.807" fill="#ffdc98" rx="40.081" ry="24.048"/><path d="m94.525 174.394c-22.136 0-40.081-10.767-40.081-24.048 0-1.984.515-3.883 1.27-5.727-9.751 4.387-16.15 11.313-16.15 19.188 0 13.282 17.945 24.048 40.081 24.048 18.829 0 34.511-7.819 38.811-18.322-6.694 3.012-14.92 4.861-23.931 4.861z" fill="#ffcd89"/><ellipse cx="432.355" cy="163.807" fill="#ffdc98" rx="40.081" ry="24.048"/><path d="m447.235 174.394c-22.136 0-40.081-10.767-40.081-24.048 0-1.984.515-3.883 1.27-5.727-9.751 4.387-16.15 11.313-16.15 19.188 0 13.282 17.945 24.048 40.081 24.048 18.829 0 34.511-7.819 38.811-18.322-6.694 3.012-14.92 4.861-23.931 4.861z" fill="#ffcd89"/><path d="m207.903 131.742 47.616 72.145 48.578-72.145z" fill="#fb5f7a"/><path d="m254.031 308.097h-24.274c1.349 7.685 2.195 15.493 2.195 23.44v96.802h24.048v-96.802c0-7.189-.677-14.909-1.969-23.44z" fill="#f74455"/></g><path d="m493.995 83.778c-11.274-7.327-25.341-8.441-37.627-2.98l-85.213 37.873c-8.318 3.697-17.152 5.571-26.255 5.571h-5.956c-15.159-26.148-42.349-44.195-72.026-47.489-27.235-3.024-54.462 5.637-74.709 23.761-7.704 6.896-14.155 14.929-19.197 23.729h-5.912c-9.103 0-17.937-1.875-26.255-5.571l-85.212-37.874c-12.287-5.461-26.353-4.347-37.627 2.98s-18.006 19.729-18.006 33.175v14.789c0 19.649 14.4 35.992 33.2 39.045 4.673 14.222 23.395 24.567 46.445 24.567 22.768 0 41.315-10.095 46.268-24.048h34.416c-.001.172-.007.344-.007.516 0 24.826 9.481 48.348 26.698 66.233 24.138 25.075 37.431 58.278 37.431 93.492v96.791c0 4.142 3.358 7.5 7.5 7.5s7.5-3.358 7.5-7.5v-96.791c0-5.365-.288-10.687-.837-15.951h34.854c-.603 5.306-.92 10.636-.92 15.974v96.769c0 4.142 3.358 7.5 7.5 7.5s7.5-3.358 7.5-7.5v-96.769c0-33.953 13.86-67.767 39.027-95.214 16.5-17.995 25.261-40.839 25.105-65.05h34.406c4.953 13.954 23.5 24.048 46.268 24.048 23.049 0 41.772-10.346 46.445-24.567 18.8-3.054 33.2-19.396 33.2-39.045v-14.789c.001-13.446-6.73-25.848-18.004-33.175zm-291.782 27.912c17.323-15.506 39.716-22.62 63.049-20.029 22.045 2.447 42.479 14.592 55.774 32.581h-130.178c3.309-4.535 7.106-8.749 11.355-12.552zm53.369 78.676-33.742-51.124h68.165zm-175.937-10.011c-15.379 0-32.581-7.077-32.581-16.548s17.201-16.548 32.581-16.548 32.581 7.077 32.581 16.548-17.202 16.548-32.581 16.548zm46.268-24.048c-4.953-13.954-23.5-24.048-46.268-24.048-22.372 0-40.672 9.746-46.002 23.322-10.693-2.657-18.643-12.335-18.643-23.839v-14.789c0-8.473 4.075-15.98 11.179-20.598 7.104-4.616 15.619-5.291 23.362-1.85l85.213 37.873c9.933 4.415 20.465 6.7 31.316 6.838-2.007 5.529-3.508 11.249-4.471 17.091zm71.915 71.346c-14.513-15.076-22.505-34.904-22.505-55.831 0-11.332 2.4-22.417 6.888-32.581h21.656l44.633 67.626v93.729h-12.215c-5.67-27.359-18.837-52.56-38.457-72.943zm234.527-47.298c-15.379 0-32.581-7.077-32.581-16.548s17.201-16.548 32.581-16.548 32.581 7.077 32.581 16.548-17.202 16.548-32.581 16.548zm64.645-48.613c0 11.504-7.95 21.182-18.643 23.838-5.329-13.577-23.63-23.322-46.002-23.322-22.768 0-41.315 10.095-46.268 24.048h-42.264c-2.104 0-4.111.884-5.532 2.436s-2.125 3.629-1.939 5.725c2.029 22.959-5.369 44.89-20.832 61.752-20.073 21.891-33.607 47.558-39.546 74.378h-12.474v-95.134l44.588-66.221h36.811c11.215 0 22.098-2.31 32.347-6.864l85.213-37.873c7.743-3.441 16.258-2.767 23.362 1.85 7.104 4.618 11.179 12.125 11.179 20.598z"/></g></svg>